<svg width="6" height="10" viewBox="0 0 6 10" fill="none" xmlns="http://www.w3.org/2000/svg">
    <path fill-rule="evenodd" clip-rule="evenodd"
        d="M0.503437 5.30917C0.421507 5.22714 0.375488 5.11594 0.375488 5C0.375488 4.88407 0.421507 4.77287 0.503437 4.69084L4.87844 0.315837C4.91849 0.272853 4.96679 0.238376 5.02046 0.214464C5.07412 0.190552 5.13206 0.177695 5.1908 0.176658C5.24954 0.175622 5.30789 0.186428 5.36237 0.208432C5.41684 0.230435 5.46633 0.263186 5.50788 0.304731C5.54942 0.346275 5.58217 0.395761 5.60417 0.450238C5.62618 0.504714 5.63698 0.563065 5.63595 0.621808C5.63491 0.680551 5.62205 0.738484 5.59814 0.79215C5.57423 0.845817 5.53975 0.894117 5.49677 0.93417L1.43094 5L5.49677 9.06584C5.53975 9.10589 5.57423 9.15419 5.59814 9.20786C5.62205 9.26152 5.63491 9.31946 5.63595 9.3782C5.63698 9.43694 5.62618 9.49529 5.60417 9.54977C5.58217 9.60424 5.54942 9.65373 5.50788 9.69528C5.46633 9.73682 5.41684 9.76957 5.36237 9.79157C5.30789 9.81358 5.24954 9.82438 5.1908 9.82335C5.13206 9.82231 5.07412 9.80945 5.02046 9.78554C4.96679 9.76163 4.91849 9.72715 4.87844 9.68417L0.503437 5.30917Z" />
</svg>