<svg xmlns="http://www.w3.org/2000/svg" width="28" height="28" fill="none">
  <g stroke="#2F2F2F" clip-path="url(#a)">
    <circle cx="14" cy="14" r="13.5"/>
    <path stroke-linecap="round" stroke-linejoin="round" d="M17.5 8.256c0 .952-.368 1.865-1.025 2.539A3.457 3.457 0 0 1 14 11.846a3.457 3.457 0 0 1-2.475-1.051 3.637 3.637 0 0 1-1.026-2.539c0-.952.37-1.865 1.026-2.538A3.457 3.457 0 0 1 14 4.667c.928 0 1.819.378 2.475 1.051A3.637 3.637 0 0 1 17.5 8.256ZM7 21.771a7.27 7.27 0 0 1 2.09-5A6.912 6.912 0 0 1 14 14.708c1.837 0 3.6.74 4.91 2.061A7.27 7.27 0 0 1 21 21.771a16.39 16.39 0 0 1-7 1.562c-2.498 0-4.869-.559-7-1.562Z"/>
  </g>
  <defs>
    <clipPath id="a">
      <path fill="#fff" d="M0 0h28v28H0z"/>
    </clipPath>
  </defs>
</svg>