<svg xmlns="http://www.w3.org/2000/svg" width="40" height="48" fill="none">
  <g clip-path="url(#a)">
    <path fill="#9EBBFF" d="M15.82 7.318c.673-.53 1.524.618 1.614 1.677.09 1.06-.852 3.444-3.497 4.061-2.644.618-2.958 2.252-2.868 3.223.09.97-.359 2.03-1.3 1.81-.942-.22-1.031-1.678-.18-3.047.852-1.37 3.003-2.604 3.362-3.355.36-.75.09-1.633.807-1.942.717-.309 1.659.486 1.569 1.237 0 0 .717-.706.627-1.766-.058-.695-.472-1.632-.134-1.898ZM33.212 13.763c.25-.707 2.017-.309 2.42.662.404.971.27 1.722.673 2.384.403.662-.717 1.765-1.547 1.633-.83-.132-.516-1.633-.516-2.295 0-.662-1.433-1.237-1.03-2.384ZM27.609 5.428c.613-.54 1.927.39 2.286 1.14.358.75.044 2.736-1.054 2.692-1.098-.044-.661-1.597-1.053-1.92-.694-.574-.672-1.479-.18-1.912ZM20.042.83c.435.673.111 1.588-.995 1.795-1.105.206-1.314-.707-1.912-.5-.598.206-1.256.352-1.524-.119-.269-.47.03-1.177 1.225-1.177s2.407-1.236 3.206 0ZM13.086 7.264c.52 0 .94-.447.94-.999 0-.551-.42-.998-.94-.998s-.942.447-.942.998c0 .552.422.999.942.999ZM9.003 10.57c-.335-.166-1.431 1.559-.684 1.765.747.207 1.218-1.5.684-1.765ZM6.078 15.69s1.464.795.926 2.428c-.538 1.633-1.703 1.427-2.062.927-.358-.5-.358-1.177.24-1.649.597-.472.896-1.706.896-1.706ZM37.157 24.489s.448.663.224 1.854c-.224 1.19-.582 3.53.672 4.193 1.255.663 1.749-1.677 1.256-2.383-.492-.706.269-3.135-2.152-3.664ZM38.748 35.127c.533 0 .964-.514.964-1.148 0-.634-.431-1.148-.964-1.148-.532 0-.964.514-.964 1.148 0 .634.432 1.148.964 1.148ZM.938 35.568c.83-.424 1.524.265 1.614 1.545.09 1.28 1.3 2.384.672 3.046-.628.662-1.357-2.075-1.928-2.329-.875-.39-1.569-1.644-.358-2.262Z"/>
    <path fill="#9EBBFF" d="M36.235 36.848c-.783.795.259 1.618-1.588 3.708-.77.87.567 3.473-3.138 3.443 0 0-2.152 1.942-4.304 2.207-2.152.266-3.048-.088-5.11 1.06-2.062 1.148-6.634-.795-8.517-1.634-1.883-.838-2.6-.927-4.213-.927s-.986-2.472-2.152-3.532c-1.166-1.059-2.51-1.5-2.6-2.47-.09-.971-.986-1.413-.896-2.914.09-1.502-1.435-1.942-1.614-3.797-.178-1.854.806-2.206.448-3.266-.359-1.06-.448-1.941.09-3.001.064-.128.138-.252.222-.368.46-.647.902-.596 1.212-1.662.359-1.237-.627-1.766.449-2.296 1.076-.529 1.434 1.059.806 2.649-.628 1.59-1.435 3.09-.358 3.354 1.076.265.807-3.001 2.242-4.503 1.434-1.5.807-1.853 2.689-3.354 1.882-1.501 2.062-.882 2.69-2.472.626-1.59 2.398-3.266 4.203-4.061 1.805-.795 2.611-1.147 2.342-2.472-.27-1.325 1.235-1.324 1.29-2.737.055-1.413-1.201-2.383-2.276-2.03-1.076.353-2.152.353-1.794-.794.36-1.147 2.617-1.06 3.684-.53 1.067.529 1.965-.794 3.4.53 1.434 1.324 3.316 1.766 3.047 4.856-.268 3.091-.537 4.149.628 4.326 1.164.177.18-1.413.18-2.648 0-1.236 2.061-1.148 2.599-.177.537.97-.179 2.648.358 3.267.538.618 1.525.529 1.794 1.411.268.883-.179 4.503 1.076 5.298 1.254.794.986-1.942 2.062-1.104 1.075.839 1.344 2.34.717 3.84-.419 1.004-.462 3.509-.219 5.665.119 1.067.307 2.05.553 2.722.74 2.03.78 3.618-.002 4.413Z"/>
    <path fill="#C6D7FF" d="M21.374 14.347c2.354-.732 4.33 3.318 3.51 5.058-.818 1.74-1.169 7.109 1.873 6.441 3.043-.667.82-5.83 2.457-5.726 1.638.104.936 4.828 1.99 6.326 1.053 1.498 4.686 11.754-1.168 15.326-5.853 3.572-14.137 3.457-17.31.806a13.853 13.853 0 0 1-2.88-3.263 6.837 6.837 0 0 1-.65-1.278c-.285-.768-.235-1.039-.523-1.809a7.295 7.295 0 0 0-.722-1.416c-.633-.957-.92-.845-1.51-1.679-.198-.278-.825-1.218-.883-2.485-.015-.332-.057-1.258.343-1.424.453-.186 1.04.78 1.642.58.315-.106.453-.47.539-.7.255-.676 0-1.095-.123-2.098-.094-.776-.207-1.71.255-2.497.076-.129.294-.55 1.018-.943 2.547-1.383 4.834-.115 6.498-2.65 1.666-2.536 1.698-2.702 3.261-3.368 1.564-.666.16-2.51 2.383-3.201Z"/>
    <path fill="#407BFF" d="M20.44 48c-1.663 0-3.984-.671-7.02-2.023-1.85-.825-2.506-.894-4.055-.894-1.225 0-1.486-1.1-1.696-1.984-.149-.625-.302-1.271-.716-1.648-.386-.35-.79-.627-1.179-.896-.788-.542-1.469-1.01-1.543-1.819-.03-.32-.178-.585-.35-.892-.27-.484-.607-1.085-.548-2.078.037-.616-.26-1.016-.635-1.523-.411-.556-.878-1.186-.977-2.215-.102-1.054.141-1.666.337-2.159.16-.402.257-.645.129-1.024-.324-.957-.535-2.018.11-3.29.272-.535.559-.786.79-.988.261-.23.45-.395.618-.977.125-.43.055-.747-.014-1.054-.102-.462-.23-1.038.66-1.476.447-.22.884-.183 1.2.1.57.51.627 1.782.137 3.024-.086.218-.176.434-.263.645-.34.825-.726 1.756-.558 2.083.013.025.043.085.198.123.009.003.018.004.028.003.173-.06.382-.884.507-1.377.25-.985.562-2.214 1.333-3.021a5.627 5.627 0 0 0 1.015-1.408c.3-.556.584-1.082 1.713-1.981.718-.574 1.197-.847 1.547-1.048.535-.306.68-.389 1.027-1.268.655-1.66 2.466-3.415 4.404-4.269l.008-.003c1.879-.828 2.315-1.06 2.114-2.05-.18-.886.291-1.347.67-1.717.318-.31.592-.578.613-1.108.022-.579-.226-1.118-.664-1.442-.345-.254-.748-.333-1.107-.215-.69.227-1.613.398-2.098-.069-.195-.188-.386-.548-.184-1.195.13-.415.45-.74.925-.94.98-.412 2.475-.224 3.299.184.295.146.574.095 1.005-.001.66-.148 1.482-.331 2.483.592.304.28.64.528.964.766 1.195.878 2.432 1.787 2.204 4.398-.033.386-.067.741-.098 1.067-.232 2.444-.186 2.764.402 2.853a.64.64 0 0 0 .125.009c.025-.16-.082-.587-.154-.879-.11-.438-.234-.934-.234-1.406 0-.613.382-1.075 1.021-1.235.766-.192 1.863.09 2.3.878.325.588.271 1.335.223 1.994-.034.478-.074 1.02.09 1.208.167.191.416.304.68.424.438.197.98.443 1.189 1.125.097.32.112.855.131 1.531.035 1.24.087 3.115.785 3.557.127.08.2.091.223.085.103-.03.248-.343.336-.53.167-.358.356-.765.762-.861.246-.058.506.018.771.224 1.201.937 1.529 2.617.834 4.28-.576 1.38-.376 6.157.34 8.115.823 2.25.793 3.912-.086 4.805-.203.207-.225.395-.256.797-.05.649-.117 1.537-1.318 2.896-.15.17-.186.536-.224.923-.103 1.047-.258 2.619-3.058 2.65-.486.414-2.416 1.96-4.401 2.204-.61.075-1.126.102-1.58.126-1.148.06-1.977.102-3.389.888-.486.27-1.1.406-1.846.406ZM4.913 21.674a.508.508 0 0 0-.218.063c-.356.175-.346.219-.253.638.076.342.18.81.002 1.423-.23.793-.544 1.068-.847 1.334-.21.183-.407.356-.613.762-.493.971-.392 1.758-.069 2.713.216.638.034 1.096-.142 1.538-.175.44-.373.937-.288 1.812.08.822.463 1.34.834 1.841.41.554.833 1.126.78 2.013-.046.775.197 1.209.455 1.669.196.349.398.71.442 1.188.042.459.561.816 1.218 1.268.392.269.836.575 1.26.96.587.534.776 1.33.942 2.03.237.996.388 1.401.949 1.401 1.608 0 2.402.083 4.372.96 5.11 2.277 7.263 2.154 8.17 1.65 1.568-.874 2.52-.923 3.726-.985.442-.023.942-.049 1.525-.12 2.007-.248 4.07-2.093 4.091-2.111.071-.064.164-.1.26-.1h.003c2.24.018 2.331-.902 2.436-1.967.05-.51.098-.993.41-1.346 1.033-1.17 1.087-1.883 1.13-2.456.033-.42.066-.854.472-1.267.641-.652.61-2.118-.086-4.023-.792-2.165-.978-7.101-.328-8.658.562-1.344.326-2.678-.6-3.4a.52.52 0 0 0-.118-.074c-.071.068-.176.294-.241.433-.178.381-.38.814-.818.94-.264.076-.552.018-.854-.174-1.04-.658-1.094-2.607-1.137-4.172-.016-.571-.031-1.111-.1-1.335-.102-.338-.348-.463-.772-.655-.313-.142-.668-.302-.944-.62-.369-.423-.322-1.07-.272-1.753.042-.582.086-1.185-.132-1.577-.242-.436-.958-.628-1.436-.508-.443.112-.443.406-.443.503 0 .38.112.829.211 1.225.165.661.308 1.231-.021 1.586-.18.194-.454.265-.812.211-1.377-.208-1.268-1.365-1.05-3.67.032-.323.065-.677.099-1.062.19-2.192-.732-2.87-1.9-3.727-.34-.251-.693-.51-1.029-.82-.703-.65-1.183-.542-1.788-.407-.452.1-.964.215-1.52-.06-.66-.328-1.911-.475-2.653-.164-.264.111-.43.268-.491.466-.066.211-.071.376-.014.432.102.098.536.15 1.319-.108.601-.197 1.261-.077 1.81.328.64.473 1.003 1.249.97 2.076-.031.827-.479 1.265-.838 1.616-.377.367-.553.565-.458 1.032.327 1.618-.756 2.097-2.554 2.888l-.008.003c-1.74.766-3.422 2.387-4.002 3.853-.427 1.082-.707 1.276-1.356 1.648-.328.188-.777.445-1.45.981-1.007.803-1.243 1.241-1.517 1.749a6.355 6.355 0 0 1-1.134 1.571c-.634.663-.919 1.785-1.146 2.686-.134.528-.25.984-.417 1.324-.33.666-.8.663-1.05.6-.408-.1-.604-.335-.697-.514-.326-.634.072-1.595.532-2.71.086-.208.174-.42.259-.634.422-1.069.305-1.974.062-2.192a.164.164 0 0 0-.123-.045Z"/>
    <path fill="#407BFF" d="M10.014 18.402c-.105 0-.21-.013-.312-.038a1.207 1.207 0 0 1-.847-.735c-.302-.716-.115-1.765.489-2.735.491-.788 1.356-1.505 2.12-2.138.56-.466 1.091-.905 1.226-1.189.117-.245.16-.52.2-.787.075-.487.16-1.039.753-1.294.405-.175.897-.097 1.316.208.211.153.384.352.505.582.13-.266.239-.622.204-1.037a5.495 5.495 0 0 0-.13-.704c-.136-.591-.263-1.15.102-1.439a.86.86 0 0 1 .902-.119c.587.249 1.105 1.125 1.179 1.994.098 1.157-.92 3.707-3.717 4.36-2.486.582-2.726 2.08-2.649 2.922.071.768-.163 1.503-.595 1.872-.206.18-.472.278-.746.277Zm4.083-8.441a.563.563 0 0 0-.224.044c-.288.124-.34.38-.413.86-.045.292-.096.623-.248.943-.19.396-.714.831-1.378 1.382-.73.605-1.558 1.291-2 2.001-.493.793-.673 1.686-.447 2.222.091.217.242.352.448.4.217.051.396.013.547-.116.293-.25.454-.809.4-1.392-.076-.824.073-2.819 3.089-3.524 2.46-.575 3.36-2.769 3.276-3.761-.06-.714-.488-1.375-.833-1.521a.28.28 0 0 0-.314.04c-.079.094.037.6.099.873.06.26.12.53.142.781.1 1.177-.678 1.957-.71 1.99a.29.29 0 0 1-.49-.233c.032-.27-.139-.59-.425-.8a.894.894 0 0 0-.519-.189ZM34.904 18.736c-.064 0-.128-.005-.191-.015-.928-.148-.84-1.34-.782-2.13.013-.168.024-.326.024-.445 0-.152-.199-.374-.391-.59-.39-.435-.924-1.032-.624-1.886.119-.337.453-.538.919-.55.734-.018 1.723.433 2.04 1.198.204.49.279.925.344 1.308.067.394.125.734.31 1.036.205.337.157.77-.131 1.19-.318.463-.92.884-1.518.884Zm-.997-5.05h-.032c-.1.004-.34.025-.39.169-.178.504.087.853.51 1.326.276.308.536.598.536.964 0 .14-.012.308-.026.487-.043.583-.109 1.464.3 1.53.352.055.863-.226 1.14-.628.075-.108.235-.382.113-.581-.24-.394-.309-.802-.383-1.234-.063-.372-.129-.756-.31-1.188-.209-.504-.927-.844-1.458-.844ZM28.879 9.545l-.049-.001c-.946-.038-1.052-.932-1.115-1.465-.021-.175-.055-.466-.113-.523-.398-.328-.63-.792-.638-1.27-.007-.42.158-.81.453-1.07.237-.208.556-.278.923-.205.747.15 1.542.864 1.816 1.436.279.584.225 1.78-.266 2.509-.26.386-.609.589-1.011.589Zm-.81-3.995a.39.39 0 0 0-.268.09.823.823 0 0 0-.262.638c.005.318.16.618.434.845.23.19.27.53.314.89.076.643.157.948.567.965.217.009.399-.101.556-.336.364-.54.429-1.526.225-1.953-.21-.438-.856-1.01-1.41-1.121a.798.798 0 0 0-.156-.018ZM18.731 2.939c-.51 0-.833-.22-1.081-.39-.234-.16-.308-.196-.42-.157-.432.149-1.445.498-1.87-.246a.945.945 0 0 1 .006-.96c.14-.24.52-.64 1.47-.64.364 0 .754-.14 1.131-.274.745-.265 1.672-.595 2.318.405.261.405.304.878.119 1.3-.208.473-.683.81-1.303.926a2.012 2.012 0 0 1-.37.036ZM17.307 1.81c.273 0 .489.148.671.273.267.183.52.355 1.016.263.436-.081.749-.292.881-.594a.803.803 0 0 0-.076-.77c-.38-.59-.823-.466-1.636-.176-.424.152-.863.308-1.327.308-.483 0-.838.13-.973.358a.385.385 0 0 0 0 .396c.13.228.493.225 1.178-.01a.814.814 0 0 1 .266-.048ZM13.086 7.547c-.678 0-1.23-.575-1.23-1.282 0-.707.552-1.282 1.23-1.282.678 0 1.229.575 1.229 1.282 0 .707-.552 1.282-1.23 1.282Zm0-1.997c-.36 0-.654.32-.654.715 0 .394.293.715.654.715.36 0 .653-.32.653-.715 0-.394-.293-.715-.653-.715ZM8.448 12.637c-.07 0-.14-.01-.206-.029a.61.61 0 0 1-.452-.488c-.106-.555.419-1.42.812-1.711.237-.176.419-.148.53-.092.46.228.471.93.244 1.507-.203.518-.548.813-.928.813Zm.466-1.752c-.211.178-.58.758-.562 1.095.004.072.018.075.045.082.166.047.346-.197.443-.443.128-.328.118-.611.074-.734ZM5.694 19.689c-.391 0-.772-.181-.987-.48-.486-.678-.364-1.514.295-2.033.425-.336.719-1.234.796-1.552a.281.281 0 0 1 .163-.193.293.293 0 0 1 .255.01c.579.315 1.545 1.296 1.062 2.764-.38 1.154-1.04 1.416-1.4 1.47-.06.009-.122.014-.184.014Zm.544-3.531c-.149.436-.437 1.113-.877 1.46-.514.405-.42.933-.183 1.263a.655.655 0 0 0 .615.233c.394-.059.727-.444.937-1.084.314-.95-.153-1.568-.492-1.872ZM38.478 30.936a1.2 1.2 0 0 1-.56-.15c-1.358-.717-1.118-2.908-.82-4.495.198-1.05-.176-1.64-.18-1.645a.28.28 0 0 1 .002-.317.287.287 0 0 1 .3-.117c1.905.417 2.054 1.925 2.152 2.922.036.364.07.708.175.858.424.607.267 1.958-.3 2.581-.218.24-.484.363-.769.363Zm-.835-5.99c.087.348.136.836.021 1.448-.41 2.183-.234 3.492.525 3.892.255.135.45.108.63-.09.41-.453.502-1.524.252-1.882-.188-.27-.227-.666-.273-1.124-.083-.846-.176-1.789-1.155-2.244ZM38.748 35.41c-.69 0-1.251-.642-1.251-1.43 0-.79.561-1.432 1.251-1.432.69 0 1.252.642 1.252 1.431 0 .79-.562 1.431-1.252 1.431Zm0-2.295c-.372 0-.675.388-.675.864 0 .477.303.864.675.864.373 0 .676-.387.676-.864 0-.476-.303-.864-.676-.864ZM3.02 40.545a.57.57 0 0 1-.076-.005c-.455-.065-.779-.706-1.153-1.448-.176-.349-.471-.933-.614-1.003C.513 37.792.02 37.129 0 36.513c-.013-.5.273-.925.805-1.197.396-.202.805-.208 1.152-.016.5.276.82.93.881 1.794.035.491.255.96.468 1.415.306.65.621 1.323.128 1.843a.558.558 0 0 1-.414.193Zm-1.605-4.818a.763.763 0 0 0-.345.093c-.335.171-.501.399-.494.677.011.398.38.87.84 1.075.307.138.539.572.89 1.268.185.364.52 1.029.704 1.13l.004-.004c.218-.23.055-.613-.23-1.219-.223-.477-.477-1.019-.519-1.614-.046-.66-.266-1.16-.59-1.339a.53.53 0 0 0-.26-.067ZM22.771 32.5c.23 1.128-.505 2.314-1.568 2.76-1.488.668-3.356-.118-3.805-1.681a2.27 2.27 0 0 1-.055-1.079.165.165 0 0 1 .058-.095.17.17 0 0 1 .272.091c.244 1.147 1.212 2.005 2.368 1.993 1.148-.008 2.089-.855 2.336-1.989.041-.21.353-.207.393 0h.001Z"/>
    <path fill="#fff" d="M9.889 34.226c1.037-.196 1.673-1.414 1.419-2.72-.254-1.308-1.301-2.209-2.339-2.014-1.037.196-1.673 1.414-1.419 2.72.254 1.308 1.301 2.209 2.339 2.014ZM9.945 28.198c1.073.33 2.15-3.13 4.051-3.912 1.9-.783 3.153-3.245 3.736-4.837.583-1.592 2.976-2.632 2.47-3.746-.505-1.113-2.694-.217-3.984 1.479-1.29 1.695-.714 3.464-2.66 4.213-1.944.748-5.833 6.123-3.613 6.803Z" opacity=".5"/>
    <path fill="#407BFF" d="M35.257 36.728c-.735.717.243 1.46-1.493 3.347-.723.785.534 3.136-2.948 3.109 0 0-2.022 1.753-4.045 1.993-2.022.24-2.864-.08-4.802.956-1.938 1.037-6.236-.717-8.005-1.474-1.77-.758-2.443-.837-3.96-.837-1.516 0-.926-2.233-2.022-3.189-1.096-.956-2.36-1.355-2.444-2.231-.085-.877-.927-1.275-.842-2.63.084-1.356-1.349-1.754-1.517-3.428-.168-1.674.758-1.992.42-2.949-.336-.957-.42-1.753.086-2.71.06-.116.13-.227.208-.332.022.542.052 1.085.24 1.42.195.349.453.67.572 1.046.305.968-.378 1.952-.478 2.957-.185 1.86 1.56 3.3 2.754 4.788 1.062 1.324 1.824 2.953 3.324 3.82 1.669.965 3.834.717 5.662.06 1.828-.657 3.497-1.685 5.36-2.25 2.154-.657 4.466-.668 6.727-.556 1.628.08 3.487.143 4.62-.965.651-.638.912-1.54 1.09-2.411.342-1.672.47-3.379.383-5.082l.591 1.105c.111.963.288 1.85.52 2.457.696 1.834.733 3.268-.001 3.986Z" opacity=".2"/>
    <path fill="#407BFF" d="M25.413 24.93c1.23-.124 2.367 1.203 2.538 2.963.171 1.76-.688 3.288-1.919 3.412-1.23.123-2.367-1.204-2.538-2.964-.171-1.76.688-3.287 1.919-3.411Z"/>
    <path fill="#fff" d="M25.5 25.667c.391.162.56.76.376 1.338-.184.578-.65.916-1.043.755-.392-.162-.56-.76-.377-1.338.184-.578.65-.916 1.043-.755Z"/>
    <path fill="#8BAEFF" d="M26.82 29.451c.185.136.207.466.05.738-.158.272-.437.384-.622.248-.185-.135-.209-.466-.05-.738.157-.272.436-.383.621-.248Z"/>
    <path fill="#407BFF" d="M14.857 24.93c-1.23-.124-2.367 1.203-2.538 2.963-.171 1.76.688 3.288 1.919 3.412 1.23.123 2.367-1.204 2.538-2.964.172-1.76-.688-3.287-1.918-3.411Z"/>
    <path fill="#fff" d="M14.771 25.667c-.392.162-.561.76-.377 1.338.184.578.65.916 1.043.755.392-.162.561-.76.377-1.338-.184-.578-.65-.916-1.043-.755Z"/>
    <path fill="#8BAEFF" d="M13.451 29.451c-.186.136-.208.466-.05.738.158.272.437.384.622.248.185-.135.208-.466.05-.738-.158-.272-.436-.383-.622-.248Z"/>
  </g>
  <defs>
    <clipPath id="a">
      <path fill="#fff" d="M0 0h40v48H0z"/>
    </clipPath>
  </defs>
</svg>