<svg xmlns="http://www.w3.org/2000/svg" aria-hidden="true" style="position:absolute;width:16;height:16;overflow:hidden">
  <defs>
    <symbol id="icon-glass" viewBox="0 0 32 32">
      <path d="m4.012.139 2.281 31.636v.086h19.64L28.214.238V.14H4.011zm21.114 30.836H7.106L5.395 7.279h.94l1.547 20.883c.009.11.058.212.138.288s.184.117.293.119h.036a.422.422 0 0 0 .296-.15.439.439 0 0 0 .105-.319L7.203 7.278h19.634l-1.711 23.696zm1.772-24.583H7.137l-.34-4.616c-.011-.113-.063-.217-.146-.292s-.191-.116-.303-.114a.445.445 0 0 0-.401.474l.34 4.555h-.953L4.946 1.02h22.34l-.388 5.373z"/>
      <path d="M10.965 11.661c.283 0 .56-.085.796-.245s.419-.386.527-.652a1.467 1.467 0 0 0-.311-1.583c-.2-.203-.455-.341-.733-.398s-.566-.027-.827.083c-.262.11-.485.296-.643.535s-.241.52-.241.807c0 .385.151.755.419 1.027s.633.425 1.012.425zm0-2.025a.56.56 0 0 1 .521.353.577.577 0 0 1-.411.781.565.565 0 0 1-.579-.244.578.578 0 0 1 .07-.723.558.558 0 0 1 .399-.168zM10.959 16.382c.004.287.091.566.251.803s.385.42.647.527a1.41 1.41 0 0 0 1.555-.33 1.471 1.471 0 0 0 .298-1.582 1.45 1.45 0 0 0-.53-.648 1.42 1.42 0 0 0-1.345-.127 1.46 1.46 0 0 0-.876 1.357zm1.99 0a.578.578 0 0 1-.348.529.552.552 0 0 1-.615-.124.586.586 0 0 1-.122-.624.57.57 0 0 1 .521-.353c.15 0 .293.06.399.168s.165.253.165.405zM21.134 16.419c.283 0 .56-.085.796-.245s.419-.386.527-.652a1.467 1.467 0 0 0-.311-1.583c-.2-.203-.455-.341-.733-.398s-.566-.027-.827.083-.485.296-.643.535a1.471 1.471 0 0 0 .178 1.834c.268.272.633.425 1.012.425zm0-2.019a.56.56 0 0 1 .522.355.58.58 0 0 1-.125.625.557.557 0 0 1-.868-.094.582.582 0 0 1 .075-.721.56.56 0 0 1 .397-.166zM16.146 13.68c.283 0 .56-.085.796-.245s.419-.386.527-.652a1.468 1.468 0 0 0-.311-1.583 1.423 1.423 0 0 0-1.56-.314c-.262.11-.485.296-.643.535s-.241.52-.241.807c0 .385.151.755.419 1.027s.633.425 1.012.425zm0-2.025a.56.56 0 0 1 .522.354.577.577 0 0 1-.411.781.565.565 0 0 1-.579-.244.578.578 0 0 1-.095-.318.57.57 0 0 1 .564-.602v.031zM13.416 21.915c.006.236.08.465.214.658s.32.342.537.428a1.174 1.174 0 0 0 1.279-.279 1.207 1.207 0 0 0 .243-1.304c-.09-.218-.242-.403-.436-.534s-.421-.2-.654-.2c-.317.008-.617.141-.838.371s-.345.538-.345.86zm1.183-.32a.314.314 0 0 1 .291.198.326.326 0 0 1-.068.349.315.315 0 0 1-.344.07.32.32 0 0 1-.195-.296c0-.085.033-.166.092-.226s.139-.094.223-.094zM19.137 20.579c.243.009.483-.057.688-.188s.368-.322.465-.548a1.239 1.239 0 0 0-.878-1.702 1.197 1.197 0 0 0-.709.075c-.224.097-.414.259-.545.466a1.247 1.247 0 0 0 .158 1.532c.218.223.511.354.82.364zm0-1.52c.084 0 .164.034.223.094a.322.322 0 0 1-.223.546.322.322 0 0 1-.122-.618.324.324 0 0 1 .123-.023zM21.637 10.645c.24 0 .475-.072.674-.207a1.235 1.235 0 0 0 .516-1.263 1.233 1.233 0 0 0-.332-.63 1.195 1.195 0 0 0-1.322-.267 1.221 1.221 0 0 0-.749 1.137c0 .326.128.64.355.87s.536.361.858.361zm0-1.52a.305.305 0 0 1 .276.052c.039.03.071.068.092.113s.033.093.033.143a.322.322 0 0 1-.257.315.305.305 0 0 1-.144-.007.305.305 0 0 1-.276-.052c-.039-.03-.071-.068-.092-.113s-.033-.093-.033-.143a.322.322 0 0 1 .257-.315.305.305 0 0 1 .144.007zM9.776 29.43a.45.45 0 0 0-.039.789.444.444 0 0 0 .421.023 13.086 13.086 0 0 1 5.988-1.477c2.204.033 4.378.529 6.383 1.459a.435.435 0 0 0 .628-.295.454.454 0 0 0-.252-.511 16.561 16.561 0 0 0-6.759-1.539 13.924 13.924 0 0 0-6.371 1.551z"/>
    </symbol>
    <symbol id="icon-calendar" viewBox="0 0 32 32">
      <path stroke-linecap="round" stroke-linejoin="round" stroke-width="1.6" d="M9 4v3m14-3v3M4 25V10a3.004 3.004 0 0 1 3-3h18a3.004 3.004 0 0 1 3 3v15M4 25a3.004 3.004 0 0 0 3 3h18a3.004 3.004 0 0 0 3-3M4 25V15a3.004 3.004 0 0 1 3-3h18a3.004 3.004 0 0 1 3 3v10m-12-8h.011v.011H16V17zm0 3h.011v.011H16V20zm0 3h.011v.011H16V23zm-3-3h.011v.011H13V20zm0 3h.011v.011H13V23zm-3-3h.011v.011H10V20zm0 3h.011v.011H10V23zm9-6h.011v.011H19V17zm0 3h.011v.011H19V20zm0 3h.011v.011H19V23zm3-6h.011v.011H22V17zm0 3h.011v.011H22V20z"/>
    </symbol>
    <symbol id="icon-chart-bar" viewBox="0 0 32 32">
      <path stroke-linecap="round" stroke-linejoin="round" stroke-width="1.6" d="M5 4v15a3.004 3.004 0 0 0 3 3h3M5 4H3m2 0h22M11 22h10m-10 0-1.333 4M27 4h2m-2 0v15a3.004 3.004 0 0 1-3 3h-3m0 0 1.333 4M9.667 26h12.667M9.667 26 9 28m13.333-2L23 28M12 15v2m4-5v5m4-8v8"/>
    </symbol>
    <symbol id="icon-wrench-screwdriver" viewBox="0 0 32 32">
      <path stroke-linecap="round" stroke-linejoin="round" stroke-width="1.6" d="M15.227 20.227 23 28a3.535 3.535 0 0 0 5.996-2.513 3.535 3.535 0 0 0-.995-2.488l-7.836-7.836m-4.938 5.064 3.328-4.04c.423-.512.987-.835 1.611-1.021.733-.219 1.551-.251 2.324-.187a6.006 6.006 0 0 0 6.486-5.404 6.013 6.013 0 0 0-.504-3.045l-4.368 4.369a4.01 4.01 0 0 1-3-3l4.368-4.368a6.008 6.008 0 0 0-7.912 2.943 6.01 6.01 0 0 0-.536 3.039c.121 1.435-.095 3.019-1.205 3.933l-.136.113m-.456 6.668L9.02 27.764a3.403 3.403 0 0 1-2.46 1.239A3.4 3.4 0 0 1 3 25.442a3.39 3.39 0 0 1 1.239-2.46l9.116-7.507-5.476-5.476H6l-3-5 2-2 5 3v1.879l5.68 5.68-2.327 1.916M24.5 24.5 21 21M6.489 25.5H6.5v.011h-.011V25.5z"/>
    </symbol>
    <symbol id="icon-arrow-right" viewBox="0 0 32 32">
      <path stroke-linecap="round" stroke-linejoin="round" stroke-width="1.333" d="M21 12V7a3.004 3.004 0 0 0-3-3h-8a3.004 3.004 0 0 0-3 3v18a3.004 3.004 0 0 0 3 3h8a3.004 3.004 0 0 0 3-3v-5m4 0 4-4m0 0-4-4m4 4H12"/>
    </symbol>
    <symbol id="icon-user" viewBox="0 0 32 32">
      <path stroke-width="1.333" d="M31.333 16c0 8.468-6.865 15.333-15.333 15.333S.667 24.468.667 16 7.532.667 16 .667 31.333 7.532 31.333 16z"/>
      <path stroke-linecap="round" stroke-linejoin="round" stroke-width="1.333" d="M20.001 9.436c0 1.088-.421 2.132-1.172 2.901S17.061 13.539 16 13.539c-1.061 0-2.079-.432-2.829-1.202s-1.172-1.813-1.172-2.901c0-1.088.421-2.132 1.172-2.901S14.939 5.333 16 5.333c1.061 0 2.079.432 2.829 1.202s1.172 1.813 1.172 2.901zM8 24.881c.034-2.153.892-4.205 2.389-5.715S13.901 16.81 16 16.81c2.099 0 4.115.846 5.611 2.356s2.355 3.562 2.389 5.715a18.732 18.732 0 0 1-8 1.785c-2.855 0-5.564-.639-8-1.785z"/>
    </symbol>
    <symbol id="icon-setting" viewBox="0 0 32 32">
      <path stroke-linecap="round" stroke-linejoin="round" stroke-width="1.333" d="M12.792 5.253A1.5 1.5 0 0 1 14.272 4h3.457c.733 0 1.36.531 1.48 1.253l.284 1.708c.084.499.417.915.86 1.16.099.053.196.111.293.169.432.261.96.343 1.433.165l1.623-.608a1.498 1.498 0 0 1 1.826.654l1.728 2.996c.177.308.24.668.177 1.018s-.249.665-.523.89l-1.337 1.103c-.391.32-.584.817-.575 1.323.002.113.002.227 0 .34-.009.504.184 1 .573 1.32l1.34 1.104c.565.467.712 1.272.347 1.907l-1.731 2.996a1.499 1.499 0 0 1-1.826.655l-1.623-.608c-.473-.177-1-.096-1.435.165a8.597 8.597 0 0 1-.293.171c-.441.244-.775.66-.859 1.159l-.284 1.707a1.5 1.5 0 0 1-1.48 1.255h-3.459c-.733 0-1.36-.531-1.48-1.253l-.284-1.708c-.083-.499-.416-.915-.859-1.16a9.308 9.308 0 0 1-.293-.169c-.433-.261-.96-.343-1.435-.165l-1.623.608a1.5 1.5 0 0 1-1.825-.653L4.74 20.506a1.5 1.5 0 0 1 .347-1.908l1.339-1.103c.389-.32.583-.817.573-1.323a9.634 9.634 0 0 1 0-.34c.009-.504-.184-1-.573-1.32l-1.339-1.104a1.502 1.502 0 0 1-.347-1.907l1.729-2.996a1.497 1.497 0 0 1 1.826-.654l1.621.608c.475.177 1.001.096 1.435-.165.096-.059.195-.116.293-.171.443-.244.776-.66.859-1.159l.285-1.708z"/>
      <path stroke-linecap="round" stroke-linejoin="round" stroke-width="1.333" d="M20 16a4.003 4.003 0 0 1-4 4 4.003 4.003 0 0 1-4-4 4.003 4.003 0 0 1 4-4 4.003 4.003 0 0 1 4 4z"/>
    </symbol>
    <symbol id="icon-closed-eye" viewBox="0 0 32 32">
      <path stroke-linecap="round" stroke-linejoin="round" stroke-width="1.333" d="M5.307 10.964A13.978 13.978 0 0 0 2.579 16C4.302 21.784 9.659 26 16 26c1.324 0 2.604-.184 3.817-.527M8.304 8.304A13.936 13.936 0 0 1 16 6c6.341 0 11.697 4.216 13.42 9.997a14.033 14.033 0 0 1-5.724 7.699M8.304 8.304 4 4m4.304 4.304 4.867 4.867m10.525 10.525L28 28m-4.304-4.304-4.867-4.867A3.996 3.996 0 0 0 20 16a4.001 4.001 0 0 0-4-4 4.017 4.017 0 0 0-2.829 1.172m5.657 5.656-5.655-5.655"/>
    </symbol>
    <symbol id="icon-opened-eye" viewBox="0 0 32 32">
      <path stroke-linecap="round" stroke-linejoin="round" stroke-width="1.333" d="M2.715 16.429a1.35 1.35 0 0 1 0-.852C4.564 10.013 9.814 6 16 6c6.184 0 11.431 4.009 13.284 9.571.093.276.093.575 0 .852C27.436 21.987 22.187 26 16 26c-6.184 0-11.432-4.009-13.285-9.571z"/>
      <path stroke-linecap="round" stroke-linejoin="round" stroke-width="1.333" d="M20 16a4.003 4.003 0 0 1-4 4 4.003 4.003 0 0 1-4-4 4.003 4.003 0 0 1 4-4 4.003 4.003 0 0 1 4 4z"/>
    </symbol>
    <symbol id="icon-icon-pencil" viewBox="0 0 32 32">
      <path stroke-linecap="round" stroke-linejoin="round" stroke-width="1.333" d="m22.483 5.983 2.249-2.251a2.5 2.5 0 0 1 3.536 3.536L14.109 21.427a6.002 6.002 0 0 1-2.529 1.507L8 24.001l1.067-3.58a5.992 5.992 0 0 1 1.507-2.529L22.483 5.984zm0 0L26 9.5m-2 9.167V25a3.004 3.004 0 0 1-3 3H7a3.004 3.004 0 0 1-3-3V11a3.004 3.004 0 0 1 3-3h6.333"/>
    </symbol>
    <symbol id="icon-trash" viewBox="0 0 32 32">
      <path stroke-linecap="round" stroke-linejoin="round" stroke-width="1.333" d="m19.653 12-.461 12m-6.384 0-.461-12m13.29-4.28c.456.069.909.143 1.363.221m-1.363-.221-1.424 18.511A3 3 0 0 1 21.221 29H10.778a2.996 2.996 0 0 1-2.992-2.769L6.362 7.72m19.275 0A63.917 63.917 0 0 0 21 7.191M6.363 7.72c-.456.068-.909.141-1.363.22m1.363-.22A63.917 63.917 0 0 1 11 7.191m10 0V5.97c0-1.573-1.213-2.885-2.787-2.935a69.515 69.515 0 0 0-4.427 0c-1.573.049-2.787 1.363-2.787 2.935v1.221m10.001 0a64.947 64.947 0 0 0-10 0"/>
    </symbol>
    <symbol id="icon-arrow-up" viewBox="0 0 32 32">
      <path stroke-linecap="round" stroke-linejoin="round" stroke-width="1.333" d="M4 22v3a3.004 3.004 0 0 0 3 3h18a3.004 3.004 0 0 0 3-3v-3M10 10l6-6m0 0 6 6m-6-6v18"/>
    </symbol>
    <symbol id="icon-minus" viewBox="0 0 32 32">
      <path d="M7 16a.997.997 0 0 1 1-1h16a.997.997 0 0 1 1 1 .997.997 0 0 1-1 1H8a.997.997 0 0 1-1-1z"/>
    </symbol>
    <symbol id="icon-plus" viewBox="0 0 32 32">
      <path stroke-linecap="round" stroke-linejoin="round" stroke-width="1.333" d="M16 8v16m8-8H8"/>
    </symbol>
    <symbol id="icon-circle-plus" viewBox="0 0 32 32">
      <path stroke-linecap="round" stroke-linejoin="round" stroke-width="1.333" d="M16 12v8m4-4h-8m16 0a12 12 0 1 1-24.003.002A12 12 0 0 1 28.002 16z"/>
    </symbol>
    <symbol id="icon-arrow-down" viewBox="0 0 32 32" width="16" height="16">
      <path d="M16.706 21.707a1.002 1.002 0 0 1-1.414 0l-10-10a.996.996 0 0 1 .025-1.388 1.002 1.002 0 0 1 1.388-.025l9.293 9.293 9.293-9.293a1.013 1.013 0 0 1 .714-.318.993.993 0 0 1 .725.293.992.992 0 0 1 .293.725 1.001 1.001 0 0 1-.318.714l-10 10z"/>
    </symbol>
    <symbol id="icon-arrow-left" viewBox="0 0 32 32">
      <path d="M9.706 10.293a1.002 1.002 0 0 1 0 1.414L6.413 15H28a.997.997 0 0 1 1 1 1 1 0 0 1-1 1H6.413l3.293 3.293a1.002 1.002 0 0 1 .025 1.439.992.992 0 0 1-.725.293 1.001 1.001 0 0 1-.714-.318l-5-5a1.002 1.002 0 0 1 0-1.414l5-5a1.002 1.002 0 0 1 1.414 0z"/>
    </symbol>
  </defs>
</svg>